<?xml version="1.0" encoding="UTF-8" standalone="no"?>
<svg xmlns:ffdec="https://www.free-decompiler.com/flash" xmlns:xlink="http://www.w3.org/1999/xlink" ffdec:objectType="frame" height="178.0px" width="116.05px" xmlns="http://www.w3.org/2000/svg">
  <g transform="matrix(1.0, 0.0, 0.0, 1.0, 13.7, 45.4)">
    <use ffdec:characterId="2824" height="89.2" transform="matrix(1.0, 0.0, 0.0, 1.0, 0.0, 0.0)" width="84.2" xlink:href="#shape1"/>
    <use ffdec:characterId="2825" height="113.55" transform="matrix(1.0, 0.0, 0.0, 1.0, 0.0, 0.0)" width="84.2" xlink:href="#shape3"/>
    <use ffdec:characterId="2828" height="117.55" transform="matrix(1.0, 0.0, 0.0, 1.0, 0.0, 0.0)" width="88.2" xlink:href="#shape5"/>
    <use ffdec:characterId="2819" ffdec:characterName="ui_fla.Symbol42_179" height="48.9" id="classed_indicator" transform="matrix(1.0, 0.0, 0.0, 1.0, -2.45, 15.3)" width="99.8" xlink:href="#sprite8"/>
  </g>
  <defs>
    <g id="shape1">
      <path d="M3.35 0.0 Q41.05 -27.9 87.55 0.0 L87.55 75.25 3.35 75.25 3.35 0.0 M13.4 67.0 L77.5 67.0 77.5 9.45 13.4 9.45 13.4 67.0" fill="#ffffff" fill-rule="evenodd" stroke="none"/>
    </g>
    <g id="shape3">
      <path d="M-0.25 79.3 L-0.25 3.6 Q37.45 -24.3 83.95 3.6 L83.95 79.3 74.95 79.3 57.45 103.2 24.05 103.2 8.75 79.3 -0.25 79.3 M73.9 67.0 L77.5 67.0 77.5 9.45 13.4 9.45 13.4 13.05 9.8 13.05 9.8 70.6 73.9 70.6 73.9 67.0" fill="#111111" fill-rule="evenodd" stroke="none"/>
      <path d="M13.4 13.05 L13.4 9.45 77.5 9.45 77.5 67.0 73.9 67.0 73.5 67.0 73.5 13.45 13.4 13.45 13.4 13.05" fill="#000000" fill-opacity="0.49803922" fill-rule="evenodd" stroke="none"/>
      <path d="M41.25 79.3 L62.9 77.75 63.0 94.35 41.35 95.95 41.25 79.3" fill="#000000" fill-opacity="0.49803922" fill-rule="evenodd" stroke="none"/>
    </g>
    <g id="shape5">
      <path d="M12.35 75.7 L3.35 75.7 3.35 0.0 Q41.05 -27.9 87.55 0.0 L87.55 75.7 78.55 75.7 61.05 99.6 27.65 99.6 12.35 75.7 78.55 75.7 M13.4 67.0 L13.4 9.45 77.5 9.45 77.5 67.0 13.4 67.0 Z" fill="none" stroke="#000000" stroke-linecap="round" stroke-linejoin="round" stroke-width="4.0"/>
    </g>
    <g id="sprite8">
      <use ffdec:characterId="2818" height="40.3" transform="matrix(1.0, 0.0, 0.0, 1.2148, 0.0, 0.0)" width="99.8" xlink:href="#sprite9"/>
    </g>
    <g id="sprite9">
      <use ffdec:characterId="2817" height="40.3" transform="matrix(1.0, 0.0, 0.0, 1.0, 0.0, 0.0)" width="99.8" xlink:href="#shape9"/>
    </g>
    <g id="shape9">
      <path d="M10.9 0.0 L9.2 18.0 10.9 36.1 6.35 36.25 5.05 36.25 0.0 21.0 0.75 18.05 0.0 15.1 5.05 -0.15 6.35 -0.15 6.35 -0.1 10.9 0.0 M86.35 -0.15 L91.35 15.1 86.35 36.25 82.4 36.25 82.4 -0.15 86.35 -0.15" fill="#111111" fill-rule="evenodd" stroke="none"/>
      <path d="M86.35 -0.15 L90.8 -0.15 95.8 15.1 95.1 18.05 95.8 21.0 90.8 36.25 86.35 36.25 91.35 15.1 86.35 -0.15" fill="#ffffff" fill-rule="evenodd" stroke="none"/>
      <path d="M90.15 36.3 L95.8 15.35 90.1 0.0 M5.7 0.0 L0.0 15.35 5.75 36.3" fill="none" stroke="#000000" stroke-linecap="round" stroke-linejoin="round" stroke-width="4.0"/>
    </g>
  </defs>
</svg>
