<?xml version="1.0" encoding="UTF-8" standalone="no"?>
<svg xmlns:ffdec="https://www.free-decompiler.com/flash" xmlns:xlink="http://www.w3.org/1999/xlink" ffdec:objectType="frame" height="178.0px" width="116.05px" xmlns="http://www.w3.org/2000/svg">
  <g transform="matrix(1.0, 0.0, 0.0, 1.0, 13.7, 45.4)">
    <use ffdec:characterId="2760" height="113.55" transform="matrix(1.0, 0.0, 0.0, 1.0, 0.0, 0.0)" width="84.2" xlink:href="#shape1"/>
    <use ffdec:characterId="2763" height="113.55" transform="matrix(1.0, 0.0, 0.0, 1.0, 0.0, 0.0)" width="84.2" xlink:href="#shape3"/>
    <use ffdec:characterId="2776" height="117.55" transform="matrix(1.0, 0.0, 0.0, 1.0, 0.0, 0.0)" width="88.2" xlink:href="#shape6"/>
  </g>
  <defs>
    <g id="shape1">
      <path d="M45.4 75.7 L3.35 75.7 3.35 0.0 Q41.05 -27.9 87.55 0.0 L87.55 75.7 85.25 75.7 85.25 99.6 45.4 99.6 45.4 75.7 M13.4 67.0 L77.5 67.0 77.5 9.45 13.4 9.45 13.4 67.0" fill="#ffffff" fill-rule="evenodd" stroke="none"/>
    </g>
    <g id="sprite1">
      <use ffdec:characterId="2761" height="60.55" transform="matrix(1.0, 0.0, 0.0, 1.0, 0.0, 0.0)" width="67.1" xlink:href="#shape2"/>
    </g>
    <g id="shape3">
      <path d="M2.0 79.3 L-0.25 79.3 -0.25 3.6 1.0 2.7 Q38.2 -23.85 83.95 3.6 L83.95 79.3 81.65 79.3 81.65 103.2 2.0 103.2 2.0 79.3 M13.4 13.05 L9.8 13.05 9.8 70.6 73.9 70.6 73.9 67.0 77.5 67.0 77.5 9.45 13.4 9.45 13.4 13.05" fill="#111111" fill-rule="evenodd" stroke="none"/>
      <path d="M73.9 67.0 L73.5 67.0 73.5 13.45 13.4 13.45 13.4 13.05 13.4 9.45 77.5 9.45 77.5 67.0 73.9 67.0" fill="#000000" fill-opacity="0.49803922" fill-rule="evenodd" stroke="none"/>
      <path d="M21.2 79.25 L42.85 79.25 40.95 95.85 19.3 95.85 21.2 79.25" fill="#ffffff" fill-opacity="0.49803922" fill-rule="evenodd" stroke="none"/>
      <path d="M60.45 80.2 L82.1 78.65 82.2 95.25 60.55 96.85 60.45 80.2" fill="#000000" fill-opacity="0.49803922" fill-rule="evenodd" stroke="none"/>
    </g>
    <g id="shape6">
      <path d="M5.6 75.7 L3.35 75.7 3.35 0.0 Q41.05 -27.9 87.55 0.0 L87.55 75.7 85.25 75.7 85.25 99.6 45.4 99.6 5.6 99.6 5.6 75.7 45.4 75.7 85.25 75.7 M13.4 67.0 L13.4 9.45 77.5 9.45 77.5 67.0 13.4 67.0 M45.4 99.6 L45.4 75.7" fill="none" stroke="#000000" stroke-linecap="round" stroke-linejoin="round" stroke-width="4.0"/>
    </g>
  </defs>
</svg>
