<?xml version="1.0" encoding="UTF-8" standalone="no"?>
<svg xmlns:ffdec="https://www.free-decompiler.com/flash" xmlns:xlink="http://www.w3.org/1999/xlink" ffdec:objectType="frame" height="178.0px" width="116.05px" xmlns="http://www.w3.org/2000/svg">
  <g transform="matrix(1.0, 0.0, 0.0, 1.0, 13.7, 45.4)">
    <use ffdec:characterId="2824" height="89.2" transform="matrix(1.0, 0.0, 0.0, 1.0, 0.0, 0.0)" width="84.2" xlink:href="#shape1"/>
    <use ffdec:characterId="2825" height="113.55" transform="matrix(1.0, 0.0, 0.0, 1.0, 0.0, 0.0)" width="84.2" xlink:href="#shape3"/>
    <use ffdec:characterId="2828" height="117.55" transform="matrix(1.0, 0.0, 0.0, 1.0, 0.0, 0.0)" width="88.2" xlink:href="#shape5"/>
  </g>
  <defs>
    <g id="shape1">
      <path d="M3.35 0.0 Q41.05 -27.9 87.55 0.0 L87.55 75.25 3.35 75.25 3.35 0.0 M13.4 67.0 L77.5 67.0 77.5 9.45 13.4 9.45 13.4 67.0" fill="#ffffff" fill-rule="evenodd" stroke="none"/>
    </g>
    <g id="shape3">
      <path d="M-0.25 79.3 L-0.25 3.6 Q37.45 -24.3 83.95 3.6 L83.95 79.3 74.95 79.3 57.45 103.2 24.05 103.2 8.75 79.3 -0.25 79.3 M73.9 67.0 L77.5 67.0 77.5 9.45 13.4 9.45 13.4 13.05 9.8 13.05 9.8 70.6 73.9 70.6 73.9 67.0" fill="#111111" fill-rule="evenodd" stroke="none"/>
      <path d="M13.4 13.05 L13.4 9.45 77.5 9.45 77.5 67.0 73.9 67.0 73.5 67.0 73.5 13.45 13.4 13.45 13.4 13.05" fill="#000000" fill-opacity="0.49803922" fill-rule="evenodd" stroke="none"/>
      <path d="M41.25 79.3 L62.9 77.75 63.0 94.35 41.35 95.95 41.25 79.3" fill="#000000" fill-opacity="0.49803922" fill-rule="evenodd" stroke="none"/>
    </g>
    <g id="shape5">
      <path d="M12.35 75.7 L3.35 75.7 3.35 0.0 Q41.05 -27.9 87.55 0.0 L87.55 75.7 78.55 75.7 61.05 99.6 27.65 99.6 12.35 75.7 78.55 75.7 M13.4 67.0 L13.4 9.45 77.5 9.45 77.5 67.0 13.4 67.0 Z" fill="none" stroke="#000000" stroke-linecap="round" stroke-linejoin="round" stroke-width="4.0"/>
    </g>
  </defs>
</svg>
