<?xml version="1.0" encoding="UTF-8" standalone="no"?>
<svg xmlns:ffdec="https://www.free-decompiler.com/flash" xmlns:xlink="http://www.w3.org/1999/xlink" ffdec:objectType="frame" height="90.55px" width="121.3px" xmlns="http://www.w3.org/2000/svg">
  <g transform="matrix(1.0, 0.0, 0.0, 1.0, 14.05, 19.2)">
    <use ffdec:characterId="2849" height="84.5" transform="matrix(1.0, 0.0, 0.0, 1.0, 0.0, 0.0)" width="121.3" xlink:href="#shape1"/>
  </g>
  <defs>
    <g id="shape1">
      <path d="M26.65 -1.7 L26.65 -2.0 Q26.65 -3.55 27.75 -4.7 28.4 -5.3 29.2 -5.6 L29.25 -5.65 Q29.1 -5.1 29.1 -4.45 29.1 -3.4 29.6 -2.55 L29.25 -1.55 27.9 -1.6 26.65 -1.7 M36.5 -5.7 L36.85 -6.05 Q37.5 -6.7 38.2 -7.15 37.45 -6.1 37.05 -4.85 L36.7 -5.1 36.5 -5.7 M100.95 10.5 L99.75 11.8 99.05 12.45 98.35 11.85 Q99.7 11.35 100.95 10.5 M97.75 22.75 L97.7 22.8 96.7 24.05 95.3 25.25 95.15 23.6 95.05 23.5 Q96.55 23.45 97.75 22.75 M83.0 44.45 Q82.35 45.35 82.0 46.4 L81.7 47.35 81.5 48.4 80.75 48.3 79.8 48.25 Q79.95 47.8 80.25 47.5 L81.7 45.55 83.0 44.45 M6.75 18.95 L6.5 17.8 Q8.15 17.3 9.65 16.25 L8.5 17.5 6.75 18.95" fill="#2e2e39" fill-rule="evenodd" stroke="none"/>
      <path d="M10.15 -2.15 L9.75 -1.6 9.35 -1.9 10.15 -2.15 M29.2 -5.6 Q29.45 -6.6 30.2 -7.15 29.55 -6.45 29.25 -5.65 L29.2 -5.6 M95.3 35.05 L95.4 37.0 96.5 41.45 96.6 42.25 95.45 41.45 Q95.4 39.1 95.0 37.2 L95.3 35.05 M11.65 11.6 L11.75 9.7 11.7 8.65 13.0 8.5 Q12.6 10.1 11.65 11.6 M64.7 48.9 L67.45 48.7 70.3 48.45 80.25 47.5 Q79.95 47.8 79.8 48.25 L76.85 48.05 Q70.7 48.05 66.35 50.2 L66.25 50.3 65.7 49.7 64.7 48.9 M17.65 48.35 L16.35 48.9 Q15.0 48.15 13.3 48.15 L12.05 48.25 11.95 48.05 17.65 48.35" fill="#8c8c9e" fill-rule="evenodd" stroke="none"/>
      <path d="M-5.9 0.75 L-4.65 -0.05 Q-2.25 -1.35 0.65 -1.35 4.4 -1.35 7.3 0.8 L8.0 -0.1 Q9.55 -1.6 11.65 -1.6 13.8 -1.6 15.3 -0.1 L16.3 1.2 23.55 0.75 26.8 0.85 27.15 -0.1 26.7 -1.35 26.65 -1.7 27.9 -1.6 29.25 -1.55 29.6 -2.55 Q29.1 -3.4 29.1 -4.45 29.1 -5.1 29.25 -5.65 L30.45 -5.8 Q32.05 -5.8 33.15 -4.7 34.05 -3.8 34.25 -2.65 L34.6 -2.45 Q35.1 -3.9 36.1 -5.2 L36.5 -5.7 36.7 -5.1 37.05 -4.85 Q37.45 -6.1 38.2 -7.15 40.5 -8.7 43.4 -8.7 47.2 -8.7 49.9 -6.05 51.35 -4.6 52.05 -2.8 56.1 -4.0 61.35 -4.0 66.95 -4.0 71.15 -2.65 L71.65 -3.2 Q73.75 -5.25 76.7 -5.25 78.15 -5.25 79.35 -4.75 80.45 -5.3 81.75 -5.3 83.95 -5.3 85.5 -3.8 L85.85 -3.4 Q88.65 -5.75 92.45 -5.75 96.75 -5.75 99.75 -2.75 102.8 0.25 102.8 4.55 102.8 7.9 100.95 10.5 99.7 11.35 98.35 11.85 L99.05 12.45 98.45 12.95 97.7 13.45 95.9 14.3 96.7 15.0 Q98.55 16.9 98.55 19.55 L98.4 21.15 97.75 22.75 Q96.55 23.45 95.05 23.5 L95.15 23.6 95.3 25.25 93.95 25.75 93.25 25.9 92.6 25.95 Q93.0 28.9 93.0 32.45 93.0 36.35 92.55 39.65 92.95 41.5 93.0 43.9 L93.75 44.4 Q94.45 44.9 95.15 45.55 97.9 48.3 97.9 52.2 L97.75 54.1 Q97.35 55.9 96.25 57.55 L95.15 58.85 Q92.35 61.6 88.4 61.6 L87.05 61.55 84.95 62.8 Q80.55 64.9 74.4 64.9 68.25 64.9 63.9 62.8 L62.55 62.05 Q60.95 63.25 58.95 63.35 L57.95 64.5 Q55.8 66.6 52.75 66.6 49.7 66.6 47.6 64.5 45.45 62.35 45.45 59.35 45.45 58.4 45.7 57.55 L44.65 57.85 Q39.7 59.4 32.65 59.4 L22.85 58.45 22.4 58.35 22.05 59.0 21.0 60.35 Q19.3 62.1 16.9 62.1 L14.55 61.6 Q12.9 62.8 10.85 62.8 9.45 62.8 8.3 62.25 L7.35 63.05 6.3 63.65 4.15 64.35 Q5.15 65.5 5.25 67.1 L5.25 67.2 4.95 68.65 4.0 70.1 Q2.8 71.35 1.05 71.35 -0.7 71.35 -1.95 70.1 -3.15 68.9 -3.15 67.2 -3.15 65.45 -1.95 64.2 L-1.35 63.7 -3.9 61.95 Q-6.45 59.4 -6.45 55.75 -6.45 52.15 -3.9 49.55 -3.3 48.95 -2.5 48.45 L-2.45 48.4 -2.45 48.35 Q-3.3 44.35 -3.3 39.25 -3.3 33.4 -2.2 29.0 L-2.35 29.0 Q-5.15 29.0 -7.1 27.05 -9.05 25.1 -9.05 22.35 -9.05 19.6 -7.1 17.65 L-7.25 17.5 Q-10.45 14.3 -10.45 9.7 -10.45 5.1 -7.25 1.85 L-5.9 0.75 Q-8.0 3.55 -8.0 7.25 -8.0 11.85 -4.8 15.05 L-4.65 15.2 Q-6.6 17.15 -6.6 19.9 -6.6 22.7 -4.65 24.65 -2.7 26.6 0.1 26.6 L0.25 26.6 Q-0.8 30.95 -0.8 36.8 -0.8 41.95 0.0 45.95 L-1.4 47.1 -2.45 48.35 -1.4 47.1 0.0 45.95 Q-0.8 41.95 -0.8 36.8 -0.8 30.95 0.25 26.6 L0.1 26.6 Q-2.7 26.6 -4.65 24.65 -6.6 22.7 -6.6 19.9 -6.6 17.15 -4.65 15.2 L-4.8 15.05 Q-8.0 11.85 -8.0 7.25 -8.0 3.55 -5.9 0.75 M4.95 68.65 L3.5 68.9 Q1.75 68.9 0.5 67.65 -0.7 66.5 -0.7 64.75 -0.7 63.0 0.5 61.75 L1.0 61.4 1.1 61.3 0.9 61.25 -1.4 59.5 Q-4.0 56.95 -4.0 53.3 -4.0 50.6 -2.5 48.45 -4.0 50.6 -4.0 53.3 -4.0 56.95 -1.4 59.5 L0.9 61.25 1.1 61.3 1.0 61.4 0.5 61.75 Q-0.7 63.0 -0.7 64.75 -0.7 66.5 0.5 67.65 1.75 68.9 3.5 68.9 L4.95 68.65 M22.05 59.0 Q20.9 59.65 19.35 59.65 L17.0 59.15 Q15.35 60.35 13.3 60.35 L10.75 59.8 Q8.95 61.5 6.6 61.95 L7.35 63.05 6.6 61.95 Q8.95 61.5 10.75 59.8 L13.3 60.35 Q15.35 60.35 17.0 59.15 L19.35 59.65 Q20.9 59.65 22.05 59.0 M96.25 57.55 Q93.95 59.15 90.85 59.15 L89.5 59.1 87.4 60.35 Q83.0 62.45 76.85 62.45 70.7 62.45 66.35 60.35 L65.0 59.6 Q63.4 60.8 61.4 60.9 L60.4 62.05 Q58.25 64.15 55.2 64.15 52.15 64.15 50.05 62.05 47.9 59.95 47.9 56.9 L48.0 55.6 48.15 55.1 47.6 55.35 47.1 55.45 Q42.15 56.95 35.1 56.95 29.2 56.95 24.85 55.9 24.35 57.0 23.45 57.95 L22.85 58.45 23.45 57.95 Q24.35 57.0 24.85 55.9 29.2 56.95 35.1 56.95 42.15 56.95 47.1 55.45 L47.6 55.35 48.15 55.1 48.0 55.6 47.9 56.9 Q47.9 59.95 50.05 62.05 52.15 64.15 55.2 64.15 58.25 64.15 60.4 62.05 L61.4 60.9 Q63.4 60.8 65.0 59.6 L66.35 60.35 Q70.7 62.45 76.85 62.45 83.0 62.45 87.4 60.35 L89.5 59.1 90.85 59.15 Q93.95 59.15 96.25 57.55 M14.2 8.15 L14.2 7.25 14.2 6.95 14.15 6.25 Q15.4 6.25 16.45 5.7 L26.0 6.45 Q32.7 6.45 37.45 5.25 L39.5 4.65 Q42.2 7.15 45.85 7.15 49.65 7.15 52.35 4.5 L52.5 4.55 Q57.2 6.45 63.8 6.45 70.0 6.45 74.5 4.75 76.5 6.5 79.15 6.5 L79.25 6.5 Q78.4 7.8 78.4 9.4 78.4 11.6 79.9 13.1 81.5 14.65 83.7 14.65 L84.75 14.55 Q84.9 17.7 86.0 20.1 85.0 24.35 85.0 30.0 85.0 36.65 86.4 41.45 85.2 42.05 84.15 43.1 L83.85 43.45 84.15 43.1 Q85.2 42.05 86.4 41.45 85.0 36.65 85.0 30.0 85.0 24.35 86.0 20.1 84.9 17.7 84.75 14.55 L83.7 14.65 Q81.5 14.65 79.9 13.1 78.4 11.6 78.4 9.4 78.4 7.8 79.25 6.5 L79.15 6.5 Q76.5 6.5 74.5 4.75 70.0 6.45 63.8 6.45 57.2 6.45 52.5 4.55 L52.35 4.5 Q49.65 7.15 45.85 7.15 42.2 7.15 39.5 4.65 L37.45 5.25 Q32.7 6.45 26.0 6.45 L16.45 5.7 Q15.4 6.25 14.15 6.25 L14.2 6.95 14.2 7.25 14.2 8.15 14.0 8.1 13.0 8.5 11.7 8.65 11.75 9.7 11.65 11.6 11.15 13.55 Q10.6 14.95 9.65 16.25 8.15 17.3 6.5 17.8 L6.75 18.95 5.85 19.55 5.55 19.65 4.05 20.25 4.35 22.35 4.2 23.95 Q5.0 25.15 5.65 27.35 7.2 32.25 7.2 39.25 7.2 42.7 6.85 45.7 L6.8 46.0 6.7 46.95 6.6 47.6 6.55 47.85 6.5 47.95 6.75 48.15 7.1 48.3 8.6 49.55 9.6 50.65 9.85 50.6 10.85 50.55 Q12.55 50.55 13.9 51.3 15.2 50.5 16.9 50.5 18.2 50.5 19.3 51.0 L20.65 50.5 21.6 50.25 23.15 49.85 26.15 49.35 32.65 49.0 Q39.7 49.0 44.65 50.5 46.4 51.05 47.55 51.7 L48.25 52.15 49.15 53.0 50.1 52.55 52.0 52.15 52.75 52.1 53.9 52.2 53.9 52.15 55.5 51.0 Q56.55 50.4 57.85 50.3 L58.6 50.25 59.8 50.35 Q61.1 50.55 62.25 51.3 L63.25 52.15 63.8 52.75 63.9 52.6 Q65.3 51.9 66.95 51.5 69.45 50.75 72.45 50.55 L74.4 50.5 79.05 50.85 79.45 49.2 79.55 48.9 79.8 48.25 80.75 48.3 81.5 48.4 81.7 47.35 82.0 46.4 Q82.35 45.35 83.0 44.45 83.45 44.1 83.95 43.9 L83.85 43.45 Q82.55 38.75 82.55 32.45 82.55 26.8 83.55 22.5 82.4 20.15 82.3 17.0 L81.25 17.1 Q79.05 17.1 77.45 15.55 75.95 14.0 75.95 11.85 75.95 10.25 76.8 8.95 L76.7 8.95 Q74.05 8.95 72.05 7.2 67.55 8.9 61.35 8.9 54.75 8.9 50.05 7.0 L49.9 6.95 Q47.2 9.6 43.4 9.6 39.75 9.6 37.05 7.1 L35.0 7.7 Q30.25 8.9 23.55 8.9 L14.9 8.3 14.2 8.15 M37.2 62.05 L38.1 61.95 Q39.85 61.95 41.05 63.1 42.3 64.35 42.3 66.1 L42.25 66.75 42.05 67.55 41.05 69.0 Q39.85 70.25 38.1 70.25 36.35 70.25 35.1 69.0 33.9 67.85 33.9 66.1 33.9 64.35 35.1 63.1 35.75 62.45 36.65 62.2 L37.2 62.05 M42.05 67.55 L40.55 67.85 Q38.8 67.85 37.55 66.6 36.35 65.4 36.35 63.65 36.35 62.85 36.65 62.2 36.35 62.85 36.35 63.65 36.35 65.4 37.55 66.6 38.8 67.85 40.55 67.85 L42.05 67.55 M-5.95 47.55 Q-6.25 48.35 -6.95 49.0 -8.15 50.25 -9.85 50.25 -11.6 50.25 -12.85 49.0 -14.05 47.8 -14.05 46.05 -14.05 44.35 -12.85 43.1 -12.2 42.45 -11.35 42.15 L-10.95 42.05 -9.85 41.9 Q-8.15 41.9 -6.95 43.1 -5.65 44.35 -5.65 46.05 L-5.8 47.15 -5.95 47.55 -7.4 47.8 Q-9.15 47.8 -10.4 46.55 -11.6 45.35 -11.6 43.65 L-11.35 42.15 -11.6 43.65 Q-11.6 45.35 -10.4 46.55 -9.15 47.8 -7.4 47.8 L-5.95 47.55" fill="#332e2c" fill-rule="evenodd" stroke="none"/>
      <path d="M9.35 -1.9 L9.75 -1.6 10.15 -2.15 Q13.5 -3.05 16.7 -1.15 L17.5 -0.1 Q22.25 -0.25 26.7 -1.35 L27.15 -0.1 26.8 0.85 23.55 0.75 16.3 1.2 15.3 -0.1 Q13.8 -1.6 11.65 -1.6 9.55 -1.6 8.0 -0.1 L7.3 0.8 Q4.4 -1.35 0.65 -1.35 -2.25 -1.35 -4.65 -0.05 -2.35 -4.35 3.65 -2.45 5.5 -1.85 7.15 -0.85 L9.35 -1.9 M30.2 -7.15 L30.35 -7.25 31.55 -7.75 Q34.6 -7.1 36.1 -5.2 35.1 -3.9 34.6 -2.45 L34.25 -2.65 Q34.05 -3.8 33.15 -4.7 32.05 -5.8 30.45 -5.8 L29.25 -5.65 Q29.55 -6.45 30.2 -7.15 M38.2 -7.15 L39.3 -8.5 Q42.05 -11.15 45.85 -11.15 49.65 -11.15 52.35 -8.5 53.8 -7.05 54.5 -5.25 58.55 -6.45 63.8 -6.45 69.4 -6.45 73.6 -5.1 L74.1 -5.65 Q76.2 -7.7 79.15 -7.7 L81.8 -7.2 Q82.9 -7.75 84.2 -7.75 86.4 -7.75 87.95 -6.25 L88.3 -5.85 Q91.1 -8.15 94.9 -8.15 99.2 -8.15 102.2 -5.2 105.25 -2.15 105.25 2.1 105.25 6.4 102.2 9.35 L100.95 10.5 Q102.8 7.9 102.8 4.55 102.8 0.25 99.75 -2.75 96.75 -5.75 92.45 -5.75 88.65 -5.75 85.85 -3.4 L85.5 -3.8 Q83.95 -5.3 81.75 -5.3 80.45 -5.3 79.35 -4.75 78.15 -5.25 76.7 -5.25 73.75 -5.25 71.65 -3.2 L71.15 -2.65 Q66.95 -4.0 61.35 -4.0 56.1 -4.0 52.05 -2.8 51.35 -4.6 49.9 -6.05 47.2 -8.7 43.4 -8.7 40.5 -8.7 38.2 -7.15 M97.8 22.7 L97.75 22.75 98.4 21.15 98.55 19.55 Q98.55 16.9 96.7 15.0 L95.9 14.3 97.7 13.45 98.45 12.95 Q100.65 15.05 99.5 19.1 L99.3 19.85 Q98.85 21.75 97.8 22.7 M5.25 67.1 Q5.15 65.5 4.15 64.35 L6.3 63.65 6.15 64.55 5.25 67.1 M97.75 54.1 L97.9 52.2 Q97.9 48.3 95.15 45.55 94.45 44.9 93.75 44.4 L93.0 43.9 Q92.95 41.5 92.55 39.65 93.0 36.35 93.0 32.45 93.0 28.9 92.6 25.95 L93.25 25.9 93.95 25.75 Q93.85 29.6 94.9 33.35 L95.3 35.05 95.0 37.2 Q95.4 39.1 95.45 41.45 L96.6 42.25 96.65 43.95 Q101.55 48.3 98.45 53.45 L97.75 54.1 M14.2 8.15 L14.9 8.3 15.0 9.1 14.6 11.05 14.35 11.85 Q13.8 13.1 12.4 13.5 L12.3 13.55 Q14.0 11.15 14.2 8.15 14.0 11.15 12.3 13.55 L11.15 13.55 11.65 11.6 Q12.6 10.1 13.0 8.5 L14.0 8.1 14.2 8.15 M79.8 48.25 L79.55 48.9 79.45 49.2 79.05 50.85 74.4 50.5 72.45 50.55 Q69.45 50.75 66.95 51.5 65.3 51.9 63.9 52.6 L63.8 52.75 63.25 52.15 62.25 51.3 Q61.1 50.55 59.8 50.35 L58.6 50.25 57.85 50.3 Q56.55 50.4 55.5 51.0 L53.9 52.15 53.9 52.2 52.75 52.1 52.0 52.15 50.1 52.55 49.15 53.0 48.25 52.15 47.55 51.7 Q46.4 51.05 44.65 50.5 39.7 49.0 32.65 49.0 L26.15 49.35 23.15 49.85 21.6 50.25 20.65 50.5 19.3 51.0 Q18.2 50.5 16.9 50.5 15.2 50.5 13.9 51.3 12.55 50.55 10.85 50.55 L9.85 50.6 9.6 50.65 8.6 49.55 7.1 48.3 6.75 48.15 6.5 47.95 6.55 47.85 6.6 47.6 6.7 46.95 6.8 46.0 6.85 45.7 Q7.2 42.7 7.2 39.25 7.2 32.25 5.65 27.35 5.0 25.15 4.2 23.95 L4.35 22.35 4.05 20.25 5.55 19.65 5.85 19.55 6.2 20.8 Q6.6 22.05 6.45 23.35 6.95 24.15 7.05 25.1 L7.05 26.3 8.05 30.1 Q9.55 35.4 9.1 41.05 8.85 43.95 8.9 46.85 L8.75 47.1 8.75 47.15 8.85 47.2 11.15 48.15 11.95 48.05 12.05 48.25 13.3 48.15 Q15.0 48.15 16.35 48.9 L17.65 48.35 20.6 49.0 22.8 48.55 Q23.7 48.35 24.65 48.55 L30.9 47.9 Q38.0 47.2 44.55 49.25 L49.3 50.9 49.6 51.1 51.9 50.6 55.2 50.1 55.95 50.15 Q60.25 49.2 64.7 48.9 L65.7 49.7 66.25 50.3 66.35 50.2 Q70.7 48.05 76.85 48.05 L79.8 48.25 M42.25 66.75 L42.3 66.1 Q42.3 64.35 41.05 63.1 39.85 61.95 38.1 61.95 L37.2 62.05 37.25 61.95 Q38.2 60.1 40.25 59.8 41.5 59.6 42.5 60.2 L43.3 60.7 Q44.15 61.7 44.1 63.1 44.05 65.0 42.85 66.5 L42.4 66.7 42.25 66.75 M-10.95 42.05 Q-10.7 40.85 -9.05 40.65 L-6.05 40.75 Q-5.2 40.75 -4.55 41.3 -3.75 42.25 -3.7 43.35 -3.65 46.05 -5.8 47.15 L-5.65 46.05 Q-5.65 44.35 -6.95 43.1 -8.15 41.9 -9.85 41.9 L-10.95 42.05" fill="#ffffff" fill-rule="evenodd" stroke="none"/>
      <path d="M9.35 -1.9 L9.75 -1.6 10.15 -2.15 10.45 -2.55 Q12.0 -4.05 14.1 -4.05 16.25 -4.05 17.75 -2.55 L18.75 -1.25 26.0 -1.7 26.65 -1.7 27.9 -1.6 29.25 -1.55 29.6 -2.55 Q29.1 -3.4 29.1 -4.45 29.1 -5.1 29.25 -5.65 29.55 -6.45 30.2 -7.15 L30.35 -7.25 Q31.45 -8.25 32.9 -8.25 34.5 -8.25 35.6 -7.15 36.25 -6.5 36.5 -5.7 L36.7 -5.1 37.05 -4.85 Q37.45 -6.1 38.2 -7.15 L39.3 -8.5 Q42.05 -11.15 45.85 -11.15 49.65 -11.15 52.35 -8.5 53.8 -7.05 54.5 -5.25 58.55 -6.45 63.8 -6.45 69.4 -6.45 73.6 -5.1 L74.1 -5.65 Q76.2 -7.7 79.15 -7.7 L81.8 -7.2 Q82.9 -7.75 84.2 -7.75 86.4 -7.75 87.95 -6.25 L88.3 -5.85 Q91.1 -8.15 94.9 -8.15 99.2 -8.15 102.2 -5.2 105.25 -2.15 105.25 2.1 105.25 6.4 102.2 9.35 L100.95 10.5 Q99.7 11.35 98.35 11.85 L99.05 12.45 99.15 12.55 Q101.0 14.45 101.0 17.1 101.0 19.75 99.15 21.6 L97.8 22.7 97.75 22.75 Q96.55 23.45 95.05 23.5 L95.15 23.6 95.3 25.25 95.45 30.0 95.3 35.05 95.0 37.2 Q95.4 39.1 95.45 41.45 L96.6 42.25 97.6 43.1 Q100.35 45.85 100.35 49.75 100.35 53.65 97.6 56.4 L96.25 57.55 Q93.95 59.15 90.85 59.15 L89.5 59.1 87.4 60.35 Q83.0 62.45 76.85 62.45 70.7 62.45 66.35 60.35 L65.0 59.6 Q63.4 60.8 61.4 60.9 L60.4 62.05 Q58.25 64.15 55.2 64.15 52.15 64.15 50.05 62.05 47.9 59.95 47.9 56.9 L48.0 55.6 48.15 55.1 47.6 55.35 47.1 55.45 Q42.15 56.95 35.1 56.95 29.2 56.95 24.85 55.9 24.35 57.0 23.45 57.95 L22.85 58.45 22.05 59.0 Q20.9 59.65 19.35 59.65 L17.0 59.15 Q15.35 60.35 13.3 60.35 L10.75 59.8 Q8.95 61.5 6.6 61.95 L7.35 63.05 Q7.7 63.85 7.7 64.75 7.7 66.5 6.45 67.65 L4.95 68.65 3.5 68.9 Q1.75 68.9 0.5 67.65 -0.7 66.5 -0.7 64.75 -0.7 63.0 0.5 61.75 L1.0 61.4 1.1 61.3 0.9 61.25 -1.4 59.5 Q-4.0 56.95 -4.0 53.3 -4.0 50.6 -2.5 48.45 L-2.45 48.35 -1.4 47.1 0.0 45.95 Q-0.8 41.95 -0.8 36.8 -0.8 30.95 0.25 26.6 L0.1 26.6 Q-2.7 26.6 -4.65 24.65 -6.6 22.7 -6.6 19.9 -6.6 17.15 -4.65 15.2 L-4.8 15.05 Q-8.0 11.85 -8.0 7.25 -8.0 3.55 -5.9 0.75 L-4.8 -0.6 Q-1.55 -3.8 3.1 -3.8 6.6 -3.8 9.35 -1.9 M83.85 43.45 L84.15 43.1 Q85.2 42.05 86.4 41.45 85.0 36.65 85.0 30.0 85.0 24.35 86.0 20.1 84.9 17.7 84.75 14.55 L83.7 14.65 Q81.5 14.65 79.9 13.1 78.4 11.6 78.4 9.4 78.4 7.8 79.25 6.5 L79.15 6.5 Q76.5 6.5 74.5 4.75 70.0 6.45 63.8 6.45 57.2 6.45 52.5 4.55 L52.35 4.5 Q49.65 7.15 45.85 7.15 42.2 7.15 39.5 4.65 L37.45 5.25 Q32.7 6.45 26.0 6.45 L16.45 5.7 Q15.4 6.25 14.15 6.25 L14.2 6.95 14.2 7.25 14.2 8.15 Q14.0 11.15 12.3 13.55 L10.95 15.05 9.65 16.25 Q8.15 17.3 6.5 17.8 L6.75 18.95 6.8 19.9 6.65 21.5 Q7.45 22.75 8.1 24.9 9.65 29.85 9.65 36.8 9.65 41.65 8.95 45.55 10.1 46.1 11.05 47.1 L11.95 48.05 12.05 48.25 13.3 48.15 Q15.0 48.15 16.35 48.9 L17.65 48.35 19.35 48.05 21.75 48.55 23.1 48.05 Q28.05 46.55 35.1 46.55 42.15 46.55 47.1 48.05 50.6 49.15 51.6 50.55 53.2 49.65 55.2 49.65 L56.35 49.75 56.35 49.7 Q58.35 47.8 61.05 47.8 63.15 47.8 64.7 48.9 L65.7 49.7 66.25 50.3 66.35 50.2 Q70.7 48.05 76.85 48.05 L79.8 48.25 80.75 48.3 81.5 48.4 81.7 47.35 82.0 46.4 Q82.35 45.35 83.0 44.45 L83.85 43.45 M36.65 62.2 Q36.35 62.85 36.35 63.65 36.35 65.4 37.55 66.6 38.8 67.85 40.55 67.85 L42.05 67.55 Q42.85 67.25 43.5 66.6 44.75 65.4 44.75 63.65 44.75 61.95 43.5 60.7 42.3 59.5 40.55 59.5 38.8 59.5 37.55 60.7 36.9 61.35 36.65 62.2 M-11.35 42.15 Q-11.05 41.3 -10.4 40.65 -9.15 39.45 -7.4 39.45 -5.65 39.45 -4.45 40.65 -3.2 41.9 -3.2 43.65 -3.2 45.35 -4.45 46.55 L-5.95 47.55 -7.4 47.8 Q-9.15 47.8 -10.4 46.55 -11.6 45.35 -11.6 43.65 L-11.35 42.15 Z" fill="none" stroke="#000000" stroke-linecap="round" stroke-linejoin="round" stroke-width="4.0"/>
    </g>
  </defs>
</svg>
