<?xml version="1.0" encoding="UTF-8" standalone="no"?>
<svg xmlns:ffdec="https://www.free-decompiler.com/flash" xmlns:xlink="http://www.w3.org/1999/xlink" ffdec:objectType="frame" height="90.55px" width="121.3px" xmlns="http://www.w3.org/2000/svg">
  <g transform="matrix(1.0, 0.0, 0.0, 1.0, 14.05, 19.2)">
    <use ffdec:characterId="2759" height="33.65" id="up1" transform="matrix(1.1072, -0.0363, 0.056, 0.9984, -2.0, -20.2)" width="100.5" xlink:href="#sprite0"/>
  </g>
  <defs>
    <g id="sprite0">
      <use ffdec:characterId="2758" height="33.65" transform="matrix(1.0, 0.0, 0.0, 1.0, 0.0, 0.0)" width="100.5" xlink:href="#shape0"/>
    </g>
    <g id="shape0">
      <path d="M86.6 20.45 L87.1 21.9 Q85.5 22.55 84.05 23.35 81.05 24.9 78.75 26.8 81.6 23.2 86.6 20.45 81.6 23.2 78.75 26.8 74.55 30.25 72.9 34.65 72.2 36.25 71.95 38.0 L7.15 38.0 Q5.4 27.65 -8.05 21.9 L-3.8 9.7 -2.15 11.2 -4.7 18.55 Q8.75 24.3 10.45 34.65 L72.9 34.65 10.45 34.65 Q8.75 24.3 -4.7 18.55 L-2.15 11.2 Q8.1 19.65 21.15 9.8 L19.85 9.4 Q22.15 8.2 24.6 6.35 L25.15 6.6 Q25.0 7.85 24.1 8.75 23.05 9.8 21.55 9.8 L21.5 9.8 Q30.5 14.3 39.25 14.5 L39.8 14.5 Q48.6 14.3 57.65 9.8 56.45 9.65 55.55 8.8 L61.15 6.35 61.65 6.75 Q61.5 7.85 60.6 8.75 59.55 9.8 58.05 9.8 L58.0 9.8 Q72.05 20.45 82.9 9.7 L86.6 20.45" fill="#666666" fill-rule="evenodd" stroke="none"/>
      <path d="M61.65 6.75 Q75.5 16.95 86.2 6.35 L90.45 18.55 Q88.85 19.2 87.4 20.0 L86.6 20.45 82.9 9.7 Q72.05 20.45 58.0 9.8 L58.05 9.8 Q59.55 9.8 60.6 8.75 61.5 7.85 61.65 6.75 M-2.15 11.2 L-0.5 6.35 Q8.6 15.3 19.85 9.4 L21.15 9.8 Q8.1 19.65 -2.15 11.2 M25.15 6.6 Q34.0 10.95 42.6 11.15 L43.15 11.15 Q49.25 11.0 55.55 8.8 56.45 9.65 57.65 9.8 48.6 14.3 39.8 14.5 L39.25 14.5 Q30.5 14.3 21.5 9.8 L21.55 9.8 Q23.05 9.8 24.1 8.75 25.0 7.85 25.15 6.6" fill="#ffffff" fill-rule="evenodd" stroke="none"/>
      <path d="M61.65 6.75 Q75.5 16.95 86.2 6.35 L90.45 18.55 Q88.85 19.2 87.4 20.0 L86.6 20.45 Q81.6 23.2 78.75 26.8 76.0 30.3 75.25 34.65 L72.9 34.65 10.45 34.65 Q8.75 24.3 -4.7 18.55 L-2.15 11.2 -0.5 6.35 Q8.6 15.3 19.85 9.4 22.15 8.2 24.6 6.35 L25.15 6.6 Q34.0 10.95 42.6 11.15 L43.15 11.15 Q49.25 11.0 55.55 8.8 L61.15 6.35 61.65 6.75 Z" fill="none" stroke="#000000" stroke-linecap="round" stroke-linejoin="round" stroke-width="4.0"/>
    </g>
  </defs>
</svg>
