<?xml version="1.0" encoding="UTF-8" standalone="no"?>
<svg xmlns:ffdec="https://www.free-decompiler.com/flash" xmlns:xlink="http://www.w3.org/1999/xlink" ffdec:objectType="frame" height="178.0px" width="116.05px" xmlns="http://www.w3.org/2000/svg">
  <g transform="matrix(1.0, 0.0, 0.0, 1.0, 13.7, 45.4)">
    <use ffdec:characterId="2760" height="113.55" transform="matrix(1.0, 0.0, 0.0, 1.0, 0.0, 0.0)" width="84.2" xlink:href="#shape1"/>
    <use ffdec:characterId="2820" height="113.55" transform="matrix(1.0, 0.0, 0.0, 1.0, 0.0, 0.0)" width="86.3" xlink:href="#shape3"/>
    <use ffdec:characterId="2823" height="117.55" transform="matrix(1.0, 0.0, 0.0, 1.0, 0.0, 0.0)" width="88.4" xlink:href="#shape6"/>
  </g>
  <defs>
    <g id="shape1">
      <path d="M45.4 75.7 L3.35 75.7 3.35 0.0 Q41.05 -27.9 87.55 0.0 L87.55 75.7 85.25 75.7 85.25 99.6 45.4 99.6 45.4 75.7 M13.4 67.0 L77.5 67.0 77.5 9.45 13.4 9.45 13.4 67.0" fill="#ffffff" fill-rule="evenodd" stroke="none"/>
    </g>
    <g id="shape3">
      <path d="M73.9 67.0 L77.5 67.0 77.5 9.45 13.4 9.45 13.4 13.05 9.8 13.05 9.8 70.6 73.9 70.6 73.9 67.0 M2.0 79.3 L-0.25 79.3 -0.25 3.6 Q37.45 -24.3 83.95 3.6 L83.95 103.2 2.0 103.2 2.0 79.3" fill="#111111" fill-rule="evenodd" stroke="none"/>
      <path d="M13.4 13.05 L13.4 9.45 77.5 9.45 77.5 67.0 73.9 67.0 73.5 67.0 73.5 13.45 13.4 13.45 13.4 13.05" fill="#000000" fill-opacity="0.49803922" fill-rule="evenodd" stroke="none"/>
      <path d="M64.3 80.2 L85.95 78.65 86.05 95.25 64.4 96.85 64.3 80.2" fill="#000000" fill-opacity="0.49803922" fill-rule="evenodd" stroke="none"/>
      <path d="M15.7 79.25 L51.0 79.25 47.9 95.85 12.6 95.85 15.7 79.25" fill="#ffffff" fill-opacity="0.49803922" fill-rule="evenodd" stroke="none"/>
    </g>
    <g id="shape6">
      <path d="M3.35 75.7 L3.35 0.0 Q41.05 -27.9 87.55 0.0 L87.55 75.7 87.55 99.6 53.8 99.6 3.15 99.6 3.35 75.7 53.8 75.7 87.55 75.7 M13.4 67.0 L13.4 9.45 77.5 9.45 77.5 67.0 13.4 67.0 M53.8 99.6 L53.8 75.7" fill="none" stroke="#000000" stroke-linecap="round" stroke-linejoin="round" stroke-width="4.0"/>
    </g>
    <g id="shape7">
      <path d="M11.3 10.3 L5.65 20.85 0.0 10.3 5.65 0.0 11.3 10.3" fill="#ffffff" fill-rule="evenodd" stroke="none"/>
      <path d="M11.3 10.3 L5.65 0.0 0.0 10.3 5.65 20.85 11.3 10.3 Z" fill="none" stroke="#000000" stroke-linecap="round" stroke-linejoin="round" stroke-width="4.0"/>
    </g>
    <g id="shape9">
      <path d="M10.8 3.5 L11.05 5.1 10.9 6.25 Q10.5 8.1 8.95 9.2 L7.5 9.9 Q4.75 10.8 2.3 9.3 -0.05 7.85 0.0 5.55 0.0 4.75 0.35 3.8 0.9 2.5 1.5 1.85 2.75 0.35 4.65 0.05 7.45 -0.35 9.6 1.75 10.5 2.5 10.8 3.5" fill="#cb9797" fill-rule="evenodd" stroke="none"/>
      <path d="M6.15 1.6 L5.55 1.75 4.35 2.65 Q5.0 2.85 5.1 3.55 5.2 4.35 4.6 4.75 L5.1 5.35 5.35 5.25 5.65 4.9 Q5.95 4.4 6.6 4.15 7.2 3.95 7.8 4.15 8.9 4.55 9.2 5.7 9.45 6.8 8.9 7.8 8.4 8.8 7.35 9.35 6.3 9.9 5.2 9.7 3.95 9.55 3.3 8.65 L2.95 8.1 Q2.25 7.85 1.8 7.15 1.3 6.35 1.45 5.55 L1.85 3.8 1.9 3.75 1.9 3.6 Q2.0 2.85 3.0 1.85 3.75 1.1 4.6 0.75 5.55 0.35 6.5 0.75 L7.05 1.15 Q7.15 1.65 6.8 1.7 L6.5 1.7 6.15 1.6" fill="#000000" fill-rule="evenodd" stroke="none"/>
    </g>
  </defs>
</svg>
